<svg viewBox="0 0 95.481 45.83087676239013" height="45.83087676239013" width="95.481" data-background-color="#ffffff" preserveAspectRatio="xMidYMid meet" id="tight-bounds" xmlns="http://www.w3.org/2000/svg" xmlns:xlink="http://www.w3.org/1999/xlink"><g><svg viewBox="0 0 95.481 45.83087676239013" height="45.83087676239013" width="95.481"><g><svg viewBox="0 0 95.481 45.83087676239013" height="45.83087676239013" width="95.481"><g id="textblocktransform"><svg viewBox="0 0 95.481 45.83087676239013" height="45.83087676239013" width="95.481" id="textblock"><g><svg viewBox="0 0 95.481 45.83087676239013" height="45.83087676239013" width="95.481"><g><svg viewBox="0 0 95.481 45.83087676239013" height="45.83087676239013" width="95.481"><g><svg xmlns="http://www.w3.org/2000/svg" xmlns:xlink="http://www.w3.org/1999/xlink" version="1.1" x="0" y="0" viewBox="5 28.399999618530273 90 43.19999694824219" enable-background="new 0 0 100 100" xml:space="preserve" height="45.83087676239013" width="95.481" class="icon-icon-0" data-fill-palette-color="accent" id="icon-0"><path d="M73.4 28.4C72.7 28.4 71.9 28.4 71.1 28.5H70.8C70.7 28.5 70.5 28.5 70.4 28.6 60.9 30 53.5 37.7 46.3 45.1 40.3 51.3 34.1 57.7 28.1 58.7 27.5 58.8 27 58.8 26.6 58.8 21.6 58.8 17.6 54.8 17.6 49.8S21.6 40.8 26.6 40.8C26.9 40.8 27.2 40.8 27.5 40.9 29.8 41.2 32.4 42.5 35.4 44.9 36.1 45.5 37.3 45.9 38.2 45.9 41.4 45.9 44.3 42.4 44.9 40.6 45.6 38.7 45 36.6 43.5 35.4 38.9 31.7 34.5 29.5 30.2 28.7 30 28.7 29.8 28.6 29.5 28.6 28.5 28.5 27.5 28.4 26.6 28.4 14.7 28.4 5 38.1 5 50S14.7 71.6 26.6 71.6C27.2 71.6 27.8 71.6 28.3 71.5 39.3 70.7 47.9 61.8 55.4 54 61.3 47.8 67 42 72.2 41.2 72.6 41 73 41 73.4 41 78.4 41 82.4 45 82.4 50S78.4 59 73.4 59C73 59 72.6 59 72 58.9 71.7 58.8 71.4 58.8 71 58.7 69 58.2 67 57.2 64.7 55.5 63.9 54.9 63 54.6 62 54.6 58.7 54.6 55.9 58.1 55.3 60.1 54.6 62.1 55.2 64.1 56.8 65.3 62.4 69.5 67.9 71.6 73.4 71.6 85.3 71.5 95 61.8 95 50S85.3 28.4 73.4 28.4" fill="#2fd236" data-fill-palette-color="accent"/></svg></g></svg></g></svg></g></svg></g></svg></g></svg></g><defs/></svg>